<?xml version="1.0" standalone="no"?>
<!DOCTYPE svg PUBLIC "-//W3C//DTD SVG 1.1//EN" "http://www.w3.org/Graphics/SVG/1.1/DTD/svg11.dtd"><svg t="1647146496252"
  class="icon" viewBox="0 0 1024 1024" version="1.1" xmlns="http://www.w3.org/2000/svg" p-id="129501"
  xmlns:xlink="http://www.w3.org/1999/xlink" width="200" height="200">
  <defs>
    <style type="text/css"></style>
  </defs>
  <path
    d="M512 32a480 480 0 1 0 480 480A480 480 0 0 0 512 32z m0 800a320 320 0 1 1 320-320 320 320 0 0 1-320 320z m0-544a224 224 0 0 0-224 224 48 48 0 1 0 96 0 128 128 0 0 1 128-128 48 48 0 1 0 0-96z"
    fill="#61dafb" p-id="129502"></path>
</svg>